<svg xmlns="http://www.w3.org/2000/svg" viewBox="0 0 3711.11 1187.47"><defs><style>.cls-1{fill:#fff;}</style></defs><g id="Calque_2" data-name="Calque 2"><path class="cls-1" d="M3462.65,805.1q-1.87-14.39-8.45-24.72a46.34,46.34,0,0,0-17.84-16.27q-11.27-6-28.79-6a89.75,89.75,0,0,0-47.26,13.46C3254.59,836.75,3215.93,947,3217,942.81s2.19-8.55,3.44-13.15q4.36-15,7.82-32.23a280.85,280.85,0,0,0,4.7-34.12,140,140,0,0,0-.94-31,70.94,70.94,0,0,0-10-27.85,58.46,58.46,0,0,0-22.22-20.34q-14.4-7.83-38.18-7.83a39.66,39.66,0,0,0-16,3.13q-7.2,3.13-7.82,11.89a38.08,38.08,0,0,0,.31,5c.2,1.67.52,3.55.94,5.63q1.24,6.27,2.19,13.77a95.57,95.57,0,0,1,.31,17.53q-1.87,21.29-8.45,50.7t-15.33,63.22c-1.46,5.82-3,11.78-4.5,17.84q-3.27,6.19-6.14,11.58-10.65,20.65-23.47,46t-27.86,51.64v-.62q-11.9,20-27.23,44.12a363.09,363.09,0,0,1-33.8,45.07,209.36,209.36,0,0,1-39.74,35.37q-21.29,14.4-45.07,15-15-1.24-25-7.83a46.57,46.57,0,0,1-15.64-16.9,73.79,73.79,0,0,1-7.83-23.16,156.64,156.64,0,0,1-2.19-26.6v-10.33a82.67,82.67,0,0,1,.63-10.32q1.24-12.52,2.81-23.79t4.07-21.91q31.92-6.87,66.66-21.9a318.21,318.21,0,0,0,64.79-37.56A242,242,0,0,0,3049.54,961a132.46,132.46,0,0,0,25-64.47,145.26,145.26,0,0,0-5.95-49.14,132.23,132.23,0,0,0-21.9-43.19,115.9,115.9,0,0,0-36.31-31q-21.59-11.88-49.13-11.89a126.07,126.07,0,0,0-55.4,12.83,194.11,194.11,0,0,0-50.07,35.37,297.11,297.11,0,0,0-42.88,52.26,422.46,422.46,0,0,0-34.11,63.84q-8.07,18.74-14.52,38-5.62,10.73-12.08,23.64h.63q-10.65,22.53-24.73,50.39T2697.46,1093a559.18,559.18,0,0,1-35.05,51.64q-18.47,24.11-37.87,39.74-18.15,13.15-30.67,16.9t-18.15-.62q-7.51-5-10.33-18.47a156.38,156.38,0,0,1-2.81-31.61,415.65,415.65,0,0,1,4.69-58.83q4.7-32.54,11.27-64.79T2592,966.91q6.89-27.85,11.27-44.13l1.88-8.14L2617,867.07q7.51-29.42,14.71-57.58t13.46-56.34h15.65q43.8,0,81.68,9.08t64.16,35.36c5,2.1,9,1.25,11.89-2.5s3.54-7.3,1.88-10.64h.62q-10.65-23.79-27.54-39.12a129.14,129.14,0,0,0-38.49-24.1,184.72,184.72,0,0,0-47-11.89,430.94,430.94,0,0,0-52.89-3.13q4.38-21.27,7.83-40.06a342.58,342.58,0,0,0,4.69-35,163.23,163.23,0,0,0-.62-31.93,65.4,65.4,0,0,0-9.71-27.85q-7.83-12.21-22.53-19.72t-39.12-7.51a38.58,38.58,0,0,0-15.33,2.82q-6.59,2.82-7.83,11.58a47.94,47.94,0,0,0,.31,5.32q.32,2.82.94,6c.83,4.17,1.57,8.66,2.19,13.45a97.52,97.52,0,0,1,.32,17.84q-1.26,13.14-7.51,42.88t-15,69.16q-24.41,2.52-50.07,4.7t-48.2,2.19a329,329,0,0,1-46-3.13,157.7,157.7,0,0,1-41-11.27l.63.63q-5.64-3.76-9.08-2.82a6.78,6.78,0,0,0-4.7,3.76,12.31,12.31,0,0,0-.62,6.88,33.07,33.07,0,0,0,1.88,7.2q11.89,25.66,40.68,35t67,9.39q18.15,0,37.55-1.25t40.69-3.13L2533.78,797q-10.65,45.06-21.9,93.57t-20.66,92.64q-9.39,44.13-16.27,81.06t-8.77,58.21q-.61,7.52-.94,14.39t-.31,13.77q0,49.46,21.91,77t77.61,27.54q33.81,0,64.47-25.35c87.17-59.71,112-150,112-147.09v16a301.77,301.77,0,0,0,6.26,62.28q6.26,29.74,20.34,52.58a108.63,108.63,0,0,0,36.93,36.62q22.85,13.75,55.4,13.77,43.8,0,77.92-17.53a237,237,0,0,0,60.72-44.44,348.64,348.64,0,0,0,47.26-59.78q20.65-32.85,37.55-62.9c2.51-4.31,5-8.59,7.39-12.85q-1.08,6.43-2.07,12.85-3.43,22.53-5.32,43.19c-.41,4.59-.72,9-.94,13.14s-.31,8.35-.31,12.52a211.71,211.71,0,0,0,3.44,38.18,104.66,104.66,0,0,0,11.89,33.49,65.64,65.64,0,0,0,23.48,23.78q15,9.09,37.55,9.08,13.77,0,13.77-8.76a29.81,29.81,0,0,0-1.88-8.77q-1.87-6.87-3.75-17.52a150.39,150.39,0,0,1-1.88-25.66v-9.71a77.84,77.84,0,0,1,.63-9.7,450.79,450.79,0,0,1,10-62.28q7.52-32.85,18.15-58.52h-.62l10-17.53v.63q8.76-14.4,21.6-36.31T3253,951.88q15.63-24.72,32.55-49.13T3319,858.62q16.58-19.71,31.3-31.92t26-12.21q6.26,0,5.64,11.27-1.26,12.53-11,38.81t-22.22,60.09q-9.39,24.4-19.71,52.26t-19.09,56.65q-8.78,28.79-16,56.33a344.76,344.76,0,0,0-9.71,51.95,66.29,66.29,0,0,0-.62,9.39V1160a136.34,136.34,0,0,0,4.07,34.43,73,73,0,0,0,12.83,26.91q8.76,11.28,23.47,17.84t36.62,6.58q19.39,0,38.8-12.52t38.5-33.8c12.72-14.18-2.65-33.68-23.47-19.72q-14.41,15.35-23.16,15.34-5,0-8.14-5a33.87,33.87,0,0,1-4.38-12.52,124.71,124.71,0,0,1-1.57-16q-.32-8.44-.31-14.71,3.12-26.91,15-65.72t25.67-78.87q16.26-43.8,29.41-87.32t16.28-78.55A154.78,154.78,0,0,0,3462.65,805.1Zm-579,158.8q6.39-15.39,14.68-32.45t18.71-34.1a338.07,338.07,0,0,1,21.08-30.79,132.27,132.27,0,0,1,21.31-22.26q10.66-8.52,19.66-8.53,9.94,0,17,13.74,9,18.47,7.11,36-1.91,21.32-16.11,39.31a158.18,158.18,0,0,1-33.86,31.73,203,203,0,0,1-41,22.27q-21.32,8.52-37.42,10.42A175.17,175.17,0,0,1,2883.67,963.9Z" transform="translate(-1129.41 -372.44)"/><path class="cls-1" d="M3919.05,762.54q17.52,0,33.8-11.58T3971,718.1a57.33,57.33,0,0,0-2.19-19.09,106.26,106.26,0,0,0-9.7-22.85q-7.52-11.26-16-16.27a32.43,32.43,0,0,0-16.59-5,30.19,30.19,0,0,0-16.58,5A47.36,47.36,0,0,0,3896.52,673a80.46,80.46,0,0,0-9.39,18.47,72.52,72.52,0,0,0-4.38,20.34q-1.26,26.29,10,38.5T3919.05,762.54Z" transform="translate(-1129.41 -372.44)"/><path class="cls-1" d="M4834.58,935a12.3,12.3,0,0,0-9.08-3.44,23.61,23.61,0,0,0-9.39,1.88q-5,8.77-12.2,22.22t-14.09,28.48q-12.52,23.16-27.85,51t-31.92,55.08q-16.59,27.22-33.49,51.33t-31.92,39.12q-8.15,6.9-12.21,4.38t-5.63-10.64a86.21,86.21,0,0,1-.94-20.34q.62-12.21,1.88-24.1t2.82-21.91c1-6.67,1.77-11.47,2.19-14.39q3.12-20,9.07-43.19t4.07-43.19q-1.87-19.39-16.59-33.49t-51.63-17.21a67,67,0,0,0-17.53,3.44q-8.15,2.82-6.89,11.58a40,40,0,0,1-2.81,20.66,122.61,122.61,0,0,0-5.95,16.27q-11.89,23.16-29.42,54.14a633.62,633.62,0,0,1-37.87,59.15q-20.34,28.17-41.93,47.89t-41,19.71q-11.27,0-17.53-5.32a32.5,32.5,0,0,1-9.39-13.77,57.94,57.94,0,0,1-3.44-18.46,179.78,179.78,0,0,1,.32-18.78q1.25-18.15,10-47.57a619.44,619.44,0,0,1,22.85-62.91q14.08-33.48,32.23-67.28a463.44,463.44,0,0,1,38.81-61q20.65-27.22,43.19-44.44t44.44-17.22q16.9,0,28.79,9.08a71.23,71.23,0,0,1,19.4,22.85,96.87,96.87,0,0,1,10.33,31,163.55,163.55,0,0,1,2.19,32.86c-.84,4.6-1.56,8.87-2.19,12.83a69.47,69.47,0,0,1-3.44,12.83q5.64,7.51,13.14,7.52c1.67,0,4.48-.63,8.45-1.88s6.36-2.51,7.2-3.76l.63-.62a143,143,0,0,0,7.51-33.8,164,164,0,0,0-4.7-52.27,145.18,145.18,0,0,0-21-46.94,118.63,118.63,0,0,0-35.68-34.12q-21.29-13.14-48.82-13.14-35.69,0-68.86,17.21T4425.85,838a404.7,404.7,0,0,0-54.77,65.41,622,622,0,0,0-44.13,76,578.05,578.05,0,0,0-31.29,77.31c-.05.14-.09.29-.14.43-3.12,5.67-6.29,11.36-9.56,17.09v-.62q-12.54,20.65-28.17,45.06a354.79,354.79,0,0,1-34.43,45.38,199,199,0,0,1-40.68,35q-21.92,14.09-46.32,14.09-14.4,0-23.79-6a43.6,43.6,0,0,1-15-16.27,79.86,79.86,0,0,1-8.13-23.48,149.52,149.52,0,0,1-2.51-28.16c0-3.34.1-7,.31-11s.52-7.6.94-11a448,448,0,0,1,14.09-62,652.27,652.27,0,0,1,22.53-63.53,571.83,571.83,0,0,1,28.48-59.15,463.8,463.8,0,0,1,31.3-49.45q15.63-21.27,31-33.8T4243.39,837a18.83,18.83,0,0,1,14.09,6.26,47.68,47.68,0,0,1,9.7,16.27,90.83,90.83,0,0,1,5,22.85,181,181,0,0,1,.62,26,140.78,140.78,0,0,1-2.19,14.71q-1.57,7.83-4.07,16.59a24.14,24.14,0,0,0,6.57,5,27.49,27.49,0,0,0,5.95,1.87q8.13,0,12.83-4.07a23.77,23.77,0,0,0,6.89-10.32,68,68,0,0,0,3.13-13.15q.93-6.87,1.56-12.52a158.61,158.61,0,0,0-5-52.26,142.75,142.75,0,0,0-21.59-46.63,118.55,118.55,0,0,0-36.3-33.49q-21.6-12.82-49.14-12.83a126,126,0,0,0-55.39,12.83A194.15,194.15,0,0,0,4086,809.49c-99.13,100.89-114.85,268-114.85,273.21v16a302.47,302.47,0,0,0,6.25,62.28q6.26,29.74,20.35,52.58a108.63,108.63,0,0,0,36.93,36.62q22.83,13.75,55.39,13.77,43.8,0,77.93-17.53a237,237,0,0,0,60.71-44.44c8.87-9,21.47-23.89,31.85-36.31,9.06-7.21,30.4-2.55,22.92,19.41a95.44,95.44,0,0,0,14.4,33.8,73,73,0,0,0,26.91,23.16q16.9,8.77,41.31,8.76,26.3,0,51.33-12.83a223.61,223.61,0,0,0,47.88-33.49,349.83,349.83,0,0,0,43.19-47.25,587.12,587.12,0,0,0,37.24-54.77c-.42,2.92-.62,4.49-.62,4.69v1.57q-2.51,15.64-1.88,39.43a196.72,196.72,0,0,0,6.57,46q5.94,22.22,18.47,38.18t35.05,16a93.48,93.48,0,0,0,34.42-6.89,105.24,105.24,0,0,0,30.05-17.52q14.38-11.88,30.36-31.61a499.7,499.7,0,0,0,31.29-43.5q15.33-23.79,30.67-50.08t28.8-52q13.44-25.65,25-48.82l20.35-40.69,6.25-13.77A32.51,32.51,0,0,0,4834.58,935Z" transform="translate(-1129.41 -372.44)"/><path class="cls-1" d="M3928.44,1156.87q-13.14,17.54-24.72,28.17t-20.35,10.64q-10.65-.62-15-14.08t-4.38-35.37q0-5,.31-12.2t.94-13.46q3.14-26.29,9.08-57.58t13.46-62.91q7.5-31.61,15.33-60.09t14.08-48.51q3.76-12.51,5.95-23.16a96.83,96.83,0,0,0,2.19-19.4q0-18.15-11.89-29.42c-47.5-21.78-67.6,16.9-67.6,16.9l-8.76,28.79q-14.55,44.59-27.34,89c-.38.69-.76,1.37-1.14,2.08-4.8,9-15.33,31-15.33,31q-10.65,22.53-24.73,50.39T3737.85,1093a559.18,559.18,0,0,1-35,51.64q-18.47,24.11-37.87,39.74-18.16,13.15-30.67,16.9t-18.15-.62q-7.52-5-10.33-18.47a155.61,155.61,0,0,1-2.82-31.61,415.77,415.77,0,0,1,4.7-58.83q4.7-32.54,11.27-64.79t13.45-60.08q6.88-27.85,11.27-44.13l1.88-8.14,11.89-47.57q7.51-29.42,14.71-57.58t13.46-56.34h15.64q43.82,0,81.69,9.08t64.16,35.36c5,2.1,9,1.25,11.89-2.5s2.5-10.64,2.5-10.64q-10.65-23.79-27.54-39.12a129.26,129.26,0,0,0-38.49-24.1,184.72,184.72,0,0,0-47-11.89,430.94,430.94,0,0,0-52.89-3.13q4.38-21.27,7.83-40.06a345.39,345.39,0,0,0,4.69-35,162.45,162.45,0,0,0-.63-31.93,65.25,65.25,0,0,0-9.7-27.85q-7.83-12.21-22.53-19.72t-39.12-7.51a38.63,38.63,0,0,0-15.34,2.82q-6.57,2.82-7.82,11.58a47.94,47.94,0,0,0,.31,5.32q.32,2.82.94,6c.83,4.17,1.57,8.66,2.19,13.45a96.73,96.73,0,0,1,.31,17.84q-1.26,13.14-7.51,42.88t-15,69.16q-24.4,2.52-50.07,4.7t-48.2,2.19a329,329,0,0,1-46-3.13,157.7,157.7,0,0,1-41-11.27l.62.63q-5.62-3.76-9.07-2.82a6.76,6.76,0,0,0-4.7,3.76,12.31,12.31,0,0,0-.62,6.88,33.09,33.09,0,0,0,1.87,7.2q11.91,25.66,40.69,35t67,9.39q18.17,0,37.56-1.25t40.68-3.13L3574.17,797q-10.65,45.06-21.91,93.57t-20.65,92.64q-9.39,44.13-16.28,81.06t-8.76,58.21q-.62,7.52-.94,14.39t-.31,13.77q0,49.46,21.91,77t77.61,27.54c22.54,0,91.45,7.95,174-120.17a243.42,243.42,0,0,0,3.76,44.12q3.75,20.36,12.83,35.68a67.44,67.44,0,0,0,23.79,24.1q14.7,8.78,36.61,8.76,18.15,0,38.19-14.39t40.05-38.18C3969.82,1165.14,3937.2,1145.2,3928.44,1156.87Z" transform="translate(-1129.41 -372.44)"/><path class="cls-1" d="M2396.4,1134.53q-17.83,26.48-33.18,43.81t-25.35,17.34q-5,0-8.13-5.32a41.62,41.62,0,0,1-4.7-12.83,78.41,78.41,0,0,1-1.56-16q0-8.44.62-14.71,1.26-22.53,10.64-55.08t20.66-70.11q12.51-41.31,23.79-84.18t14.39-77.3a129.21,129.21,0,0,0-.31-26.92,62.85,62.85,0,0,0-6.89-22.85,42.45,42.45,0,0,0-14.71-15.64q-9.37-5.94-24.41-5.95-21.28,0-30,4.69t-10,17.22a7.06,7.06,0,0,1,.63,3.13,21.88,21.88,0,0,0,.63,6.26,83.58,83.58,0,0,1,1.87,10.32,43.52,43.52,0,0,1,0,10.33,298.23,298.23,0,0,1-4.38,35.37q-3.13,16.59-7.51,32.54t-9.7,32.55q-5.32,16.59-11.58,35.37l.63-.63q-9.39,15-22.54,36.93t-28.48,46.32q-15.34,24.4-31.29,48.2t-31.3,43.18q-15.34,19.41-28.17,31.3t-21,11.89c-3.76,0-6.17-3.33-7.2-10a120.5,120.5,0,0,1-.94-23.83,359.28,359.28,0,0,1,7.82-44.5q5.94-25.71,12.83-52.35t14.71-51.71q7.83-25.08,13.46-43.26,6.89-18.79,14.4-46.07a313.51,313.51,0,0,0,10-54.85,133.54,133.54,0,0,0-4.38-46.7q-6.27-22.26-24.41-33.54-5.64-3.13-18.47-6.89a89.68,89.68,0,0,0-25.35-3.77,37.46,37.46,0,0,0-15.64,3.13q-6.9,3.13-7.52,11.89v4.38a14.29,14.29,0,0,0,1.26,5v-.62c.83,3.34,1.77,7.19,2.81,11.58s1.15,9.91.32,16.58q-1.89,20.65-10.33,54.46c-2,8-28.47,106-32.24,119.86q-6.89,25.35-12.83,50.39T2023,1102.11q-4.37,24.09-6.26,44.75-.62,6.9-.93,13.14t-.32,12.52q0,35.68,12.83,57.27t45.38,21.6a94.78,94.78,0,0,0,47.26-12.52,179.27,179.27,0,0,0,41.63-32.86,388.78,388.78,0,0,0,36.92-45.38q17.52-25,33.8-50.7a5.54,5.54,0,0,0,1.57-2.5,5.5,5.5,0,0,1,1.56-2.51q-2.5,10.68-4.06,21.09t-2.19,19.86v18.28a138.09,138.09,0,0,0,3.75,33.36,64.59,64.59,0,0,0,12.83,26,58.89,58.89,0,0,0,23.79,16.9q14.7,6,36.61,5.94,19.4,0,38.81-12.52t38.5-33.86a425.67,425.67,0,0,0,37.24-48.77C2433.85,1132.94,2408.29,1116.88,2396.4,1134.53Z" transform="translate(-1129.41 -372.44)"/><g id="jnUWdD.tif"><path class="cls-1" d="M2041,1559.91c-7-.89-14-1.62-21-2.7-39.25-6.12-72.29-24.28-100.73-51.63-27.45-26.41-45.78-58.44-59.85-93.44-15.75-39.16-25.73-79.71-31.71-121.4-8.75-60.92-10.24-122.08-6.56-183.45a956.21,956.21,0,0,1,10.94-99.72c.27-1.64.37-3.31.58-5.33-7.27-1.45-14.47-2.59-21.52-4.33-27.79-6.85-55.52-13.88-83.27-20.86-4.53-1.14-9-2.33-13.58-3.5-5.11-1.32-5.61-1.08-8.62,3.25-22.34,32.08-44.55,64.25-67.12,96.18-9.61,13.6-19.13,27.41-30.14,39.86-41.13,46.49-92.72,75.44-153.56,87-59.89,11.34-116.7,1.56-171.28-25.88-72.14-36.27-114.66-96-139.64-170.42-5.35-15.93-8.41-32.46-10.88-49.11-10-67.75.7-131.91,33-192.33,24.44-45.71,57.75-83.18,101.73-111.35,32.12-20.58,67.07-32.3,104.29-38.39,17.09-2.8,34.38-4.77,51.6-3.55,33,2.35,65.23,8.56,95.46,22.72,69.77,32.69,119.08,84.7,147.31,156.47,3.28,8.36,5.24,17.27,9,25.41,3.37,7.4-1.89,11.91-4,17.5-.29.75-1.75,1.35-2.74,1.48-8.25,1.08-16.17.33-21.09-7.4-5.9-9.27-11.25-18.88-16.75-28.4-6.83-11.82-13-24.09-20.46-35.47-18.72-28.4-42.43-51.9-71.66-69.58-24.69-14.93-51.45-24.23-79.82-29.06a237.31,237.31,0,0,0-68.45-2,219.56,219.56,0,0,0-26.48,4.83c-35.52,8.75-67.27,25.24-96,47.71-52,40.68-84.66,93.74-97.47,158.16-10.58,53.13-6.6,105.85,15.09,155.94,30.31,70,82.38,115.58,156.84,134.55a220.53,220.53,0,0,0,72.06,6.49c112.37-2.73,194.12-121.23,212.31-145.82,29-39.19,55-80.3,80.22-122.06,30-49.7,58.48-100.15,84.66-151.91,48.6-96.06,90.41-194.92,121.52-298.12,5.19-17.19,9.89-34.54,14.56-51.89,1.57-5.87,5-10.1,9.29-14.14,9.54-8.93,20.63-12.22,33.57-11.67,15.17.64,29.82,2.78,43.42,9.89,23.06,12.06,35.65,31.7,40.64,56.66,6.84,34.25,6.24,68.55,1.12,103-14.15,95.4-35.41,189.36-56.14,283.44-13.77,62.47-26.87,125.09-39.83,187.73q-8.31,40.11-14.67,80.62a318.63,318.63,0,0,0-3.9,45.12c-.56,39.1-1.22,78.24,0,117.31,1.53,50.65,9,100.5,26.35,148.44,10.16,28,24.49,53.59,45.51,75.07,24.83,25.39,55.53,34.88,90.26,32.92,26.79-1.5,52-9.48,76.42-20.12,4.14-1.81,7.61-1.93,11.47.48,4.74,3,10.32,4.8,12.54,10.68v5.76a3.39,3.39,0,0,0-.62.83c-3.52,11.72-10.52,19.36-22.54,23.81-30.21,11.2-60.78,20.46-92.94,23.79l-19.26,2ZM1838.77,966.73a26.73,26.73,0,0,0,1.22-3c6.27-28.44,12.65-56.85,18.75-85.32q11.6-54.12,22.81-108.31c7.35-35.3,14.7-70.61,21.79-106,5-24.94,9.58-50,14.3-75q2.08-11.08,3.8-22.25c.13-.86-.78-1.89-1.21-2.84a15.62,15.62,0,0,0-2.17,1.86,7.55,7.55,0,0,0-.85,2c-11.47,26.42-22.6,53-34.46,79.22C1838.53,745,1788.24,839.74,1733.31,932c-.76,1.29-1.49,2.59-2.76,4.79Z" transform="translate(-1129.41 -372.44)"/></g><path class="cls-1" d="M1473.66,737.73l7.62,6.56c-12.72-3.24-9.65,7.75-10.11,11.68-1.21,10.19-10.66,13.32-15,20.65-6,10.14-12.18,20.65-20.55,28.77-6,5.87-7.58,12-7.28,19.87-14,2-16.65,14.51-23.12,23.39-5,6.84-9.24,14.22-14.13,21.13-4.6,6.51-9.6,12.72-14.42,19,2.77-.71,6.34-1.6,9.89-2.56,11.88-3.18,25.19-1.68,35.89-9.29,3.92-2.79,11.21-3.42,16.38-2.05,10.31,2.73,19.4-.29,29-.69,13-.54,25.23-5.07,39.22-.77,6.68,2.06,14.62-1,22-1.82,4.19-.46,8.33-1.15,12.53-1.55,8.32-.8,16.63-1.72,25-2.14,17.39-.88,34.83-1.4,52.23-2.2A163.18,163.18,0,0,0,1638.3,864c1.53-.25,3-3.23,3.34-5.24,4.2-22.9-1.16-45.39-10.86-67.12a250.22,250.22,0,0,0-21.61-37.9c-5.58-8.23-13.58-15-20.45-22.47-8.42-9.15-16.37-18.76-25.33-27.37-7.33-7-15.88-12.83-23.8-19.3-2.49-2-4.39-4.94-7.07-6.56-3.28-2-7.1-3-10.86-6.2,4.38-.27,8.79-1.26,13.14-.71,21.31,2.71,40,12.64,57.77,24.9,28,19.37,51.2,43.5,64.2,74,12.13,28.51,24.28,57.9,18.2,89a284.42,284.42,0,0,0-4.34,30.34c-.43,5.1-3.28,5.84-7.28,6q-37.61,1.65-75.21,3.27c-9.79.43-19.58.84-29.34,1.49-13.1.86-26.42,4.6-39.17,2.33-19-3.39-34.33,5.78-52.39,5.9-42.51.28-84.67,4.21-127,6.59-2.83.16-5.74-.25-9.77-.46,39.52-59.77,86.29-112.1,131.11-167.16l3.67,9,2.18.66c-2-8.52-2.32-16.15,6.57-19.28Zm37,150.39-.41-2.43-20.62,2.14.22,1Z" transform="translate(-1129.41 -372.44)"/><ellipse class="cls-1" cx="1580.67" cy="746.02" rx="40.98" ry="37.57" transform="translate(-1296.11 415.79) rotate(-26.65)"/><ellipse class="cls-1" cx="1492.92" cy="1116.84" rx="40.98" ry="37.57" transform="translate(-1471.76 415.83) rotate(-26.65)"/><ellipse class="cls-1" cx="1261.44" cy="741.69" rx="40.98" ry="37.57" transform="translate(-1328.08 272.15) rotate(-26.65)"/><ellipse class="cls-1" cx="1221.11" cy="1026.07" rx="52.25" ry="47.89" transform="translate(-1459.92 284.27) rotate(-26.65)"/><ellipse class="cls-1" cx="1484.27" cy="849.41" rx="31.41" ry="28.79" transform="translate(-1352.72 383.54) rotate(-26.65)"/><path class="cls-1" d="M1707.33,764.46c-46.09-74-114.35-124.17-187.85-172.54C1571.16,592.94,1673.13,687.31,1707.33,764.46Z" transform="translate(-1129.41 -372.44)"/><path class="cls-1" d="M1745.91,748.32c-16.08-55.09-57.57-89.41-85.57-137.06C1697.17,625.55,1752.08,712.78,1745.91,748.32Z" transform="translate(-1129.41 -372.44)"/></g></svg>